# xmcd CD database file
#
# Track frame offsets:
#	150
#	14518
#	26309
#	39839
#	50965
#	62357
#	73521
#	82711
#	94410
#	104055
#	114155
#	125584
#	136132
#	146466
#	157327
#	168575
#	178047
#	189227
#	201342
#	211165
#	221636
#	234915
#	245667
#
# Disc length: 3418 seconds
#
# Revision: 0
# Processed by: cddbd v1.5.2PL0 Copyright (c) Steve Scherf et al.
# Submitted via: CDex 1.72
#
DISCID=460d5817
DTITLE=Wanda Jackson - Before The Music Died - The Complete Recordings 1954-1962 Disc Four
DYEAR=2013
DGENRE=Country
TTITLE0=01 - Half As Good A Girl
TTITLE1=02 - Silver Threads And Golden Needles
TTITLE2=03 - Cryin' Thru The Night
TTITLE3=04 - Let Me Explain
TTITLE4=05 - No Wedding Bells For Joe
TTITLE5=06 - Just A Queen For A Day
TTITLE6=07 - (Everytime They Play) Our Song
TTITLE7=08 - Sinful Heart
TTITLE8=09 - Savin' My Love
TTITLE9=10 - A Date With Jerry
TTITLE10=11 - I'd Rather Have You
TTITLE11=12 - Reaching
TTITLE12=13 - Please Call Today
TTITLE13=14 - My Destiny
TTITLE14=15 - Riot In Cell Block #9
TTITLE15=16 - Funnel of Love
TTITLE16=17 - Little Charm Bracelet
TTITLE17=18 - Misunderstood
TTITLE18=19 - You Bug Me Bad
TTITLE19=20 - Between The Window And The Phone
TTITLE20=21 - The Greatest Actor
TTITLE21=22 - On Teardrop At A Time
TTITLE22=23 - Whirlpool
EXTD=YEAR: 2013
EXTT0=
EXTT1=
EXTT2=
EXTT3=
EXTT4=
EXTT5=
EXTT6=
EXTT7=
EXTT8=
EXTT9=
EXTT10=
EXTT11=
EXTT12=
EXTT13=
EXTT14=
EXTT15=
EXTT16=
EXTT17=
EXTT18=
EXTT19=
EXTT20=
EXTT21=
EXTT22=
PLAYORDER=
